<?xml version="1.0" encoding="UTF-8"?>
<svg width="854px" height="500px" viewBox="0 0 854 500" version="1.1" xmlns="http://www.w3.org/2000/svg" xmlns:xlink="http://www.w3.org/1999/xlink">
    <g id="Artboard" stroke="none" stroke-width="1" fill="none" fill-rule="evenodd">
        <rect id="Rectangle" fill="#263238" x="0" y="0" width="854" height="500" rx="4"></rect>
        <g id=".peter-goes-{-front-" transform="translate(140.203077, 145.261538)" fill-rule="nonzero">
            <path d="M2.14358974,29.0553846 C2.14358974,28.2758935 2.33845959,27.5548751 2.72820513,26.8923077 C3.11795067,26.2297403 3.64734708,25.7003439 4.31641026,25.3041026 C4.98547343,24.9078613 5.70973969,24.7097436 6.48923077,24.7097436 C7.26872185,24.7097436 7.99298811,24.9078613 8.66205128,25.3041026 C9.33111446,25.7003439 9.86051087,26.2297403 10.2502564,26.8923077 C10.6400019,27.5548751 10.8348718,28.2758935 10.8348718,29.0553846 C10.8348718,29.8348757 10.6400019,30.5558941 10.2502564,31.2184615 C9.86051087,31.881029 9.33111446,32.4104254 8.66205128,32.8066667 C7.99298811,33.202908 7.26872185,33.4010256 6.48923077,33.4010256 C5.70973969,33.4010256 4.98547343,33.202908 4.31641026,32.8066667 C3.64734708,32.4104254 3.11795067,31.881029 2.72820513,31.2184615 C2.33845959,30.5558941 2.14358974,29.8348757 2.14358974,29.0553846 Z M32.3682051,11.3610256 C34.9795002,11.3610256 36.8924726,12.3126401 38.1071795,14.2158974 C39.3218864,16.1191548 39.9292308,18.8245978 39.9292308,22.3323077 C39.9292308,24.4759082 39.6141912,26.3823848 38.9841026,28.0517949 C38.3540139,29.7212049 37.4413735,31.0300807 36.2461538,31.9784615 C35.0509342,32.9268423 33.6283843,33.4010256 31.9784615,33.4010256 C29.9647763,33.4010256 28.3278695,32.6800072 27.0676923,31.2379487 L27.0676923,40.7282051 L20.9097436,41.3712821 L20.9097436,12.0430769 L26.3661538,12.0430769 L26.6389744,14.3620513 C27.4444485,13.3357214 28.3408498,12.5789768 29.3282051,12.0917949 C30.3155605,11.6046129 31.3288837,11.3610256 32.3682051,11.3610256 Z M30.4584615,15.9015385 C29.7699111,15.9015385 29.1495754,16.1061518 28.5974359,16.5153846 C28.0452964,16.9246174 27.535387,17.5189705 27.0676923,18.2984615 L27.0676923,27.0287179 C27.5094039,27.6782938 27.9673481,28.1492293 28.4415385,28.4415385 C28.9157289,28.7338476 29.4711079,28.88 30.1076923,28.88 C31.2379544,28.88 32.0986295,28.3668427 32.6897436,27.3405128 C33.2808577,26.3141829 33.5764103,24.6707805 33.5764103,22.4102564 C33.5764103,20.7473421 33.4562405,19.4384663 33.2158974,18.4835897 C32.9755544,17.5287132 32.6280365,16.85966 32.1733333,16.4764103 C31.7186302,16.0931605 31.147012,15.9015385 30.4584615,15.9015385 Z M49.6338462,24.1835897 C49.8287189,25.8075295 50.3613632,27.0027312 51.2317949,27.7692308 C52.1022266,28.5357303 53.225976,28.9189744 54.6030769,28.9189744 C56.3569318,28.9189744 58.1237518,28.3473561 59.9035897,27.2041026 L62.3784615,30.5558974 C61.3521316,31.4393207 60.1406907,32.1343564 58.7441026,32.6410256 C57.3475144,33.1476948 55.8047948,33.4010256 54.1158974,33.4010256 C51.8034072,33.4010256 49.8417175,32.9398337 48.2307692,32.0174359 C46.619821,31.0950381 45.4051323,29.8056493 44.5866667,28.1492308 C43.768201,26.4928122 43.3589744,24.5798399 43.3589744,22.4102564 C43.3589744,20.3446051 43.7552097,18.4738545 44.5476923,16.7979487 C45.3401749,15.1220429 46.4964027,13.7969279 48.0164103,12.8225641 C49.5364179,11.8482003 51.3487074,11.3610256 53.4533333,11.3610256 C55.4150525,11.3610256 57.1266594,11.7832436 58.5882051,12.6276923 C60.0497509,13.472141 61.1767482,14.6933253 61.9692308,16.2912821 C62.7617134,17.8892388 63.1579487,19.7859719 63.1579487,21.9815385 C63.1579487,22.8259871 63.1189747,23.5599969 63.0410256,24.1835897 L49.6338462,24.1835897 Z M53.4533333,15.4923077 C52.3230713,15.4923077 51.4234221,15.9015344 50.754359,16.72 C50.0852958,17.5384656 49.6858126,18.7921283 49.5558974,20.4810256 L57.1558974,20.4810256 C57.1169229,17.155197 55.8827472,15.4923077 53.4533333,15.4923077 Z M86.3087179,31.5302564 C85.4382862,32.1018832 84.4282109,32.5565795 83.2784615,32.894359 C82.1287122,33.2321384 80.8782974,33.4010256 79.5271795,33.4010256 C76.8769098,33.4010256 74.8827417,32.7254768 73.5446154,31.374359 C72.206489,30.0232411 71.5374359,28.1265079 71.5374359,25.6841026 L71.5374359,16.2912821 L67.1917949,16.2912821 L67.1917949,12.0430769 L71.5374359,12.0430769 L71.5374359,7.56102564 L77.6953846,6.82051282 L77.6953846,12.0430769 L84.36,12.0430769 L83.7558974,16.2912821 L77.6953846,16.2912821 L77.6953846,25.6841026 C77.6953846,26.7104325 77.9259806,27.4444422 78.3871795,27.8861538 C78.8483784,28.3278655 79.5986273,28.5487179 80.6379487,28.5487179 C81.9371005,28.5487179 83.1452936,28.2369262 84.2625641,27.6133333 L86.3087179,31.5302564 Z M96.4030769,24.1835897 C96.5979497,25.8075295 97.1305939,27.0027312 98.0010256,27.7692308 C98.8714573,28.5357303 99.9952068,28.9189744 101.372308,28.9189744 C103.126163,28.9189744 104.892983,28.3473561 106.672821,27.2041026 L109.147692,30.5558974 C108.121362,31.4393207 106.909922,32.1343564 105.513333,32.6410256 C104.116745,33.1476948 102.574026,33.4010256 100.885128,33.4010256 C98.572638,33.4010256 96.6109482,32.9398337 95,32.0174359 C93.3890518,31.0950381 92.1743631,29.8056493 91.3558974,28.1492308 C90.5374318,26.4928122 90.1282051,24.5798399 90.1282051,22.4102564 C90.1282051,20.3446051 90.5244405,18.4738545 91.3169231,16.7979487 C92.1094057,15.1220429 93.2656334,13.7969279 94.785641,12.8225641 C96.3056486,11.8482003 98.1179382,11.3610256 100.222564,11.3610256 C102.184283,11.3610256 103.89589,11.7832436 105.357436,12.6276923 C106.818982,13.472141 107.945979,14.6933253 108.738462,16.2912821 C109.530944,17.8892388 109.927179,19.7859719 109.927179,21.9815385 C109.927179,22.8259871 109.888206,23.5599969 109.810256,24.1835897 L96.4030769,24.1835897 Z M100.222564,15.4923077 C99.092302,15.4923077 98.1926529,15.9015344 97.5235897,16.72 C96.8545266,17.5384656 96.4550434,18.7921283 96.3251282,20.4810256 L103.925128,20.4810256 C103.886154,17.155197 102.651978,15.4923077 100.222564,15.4923077 Z M130.252308,11.4194872 C131.486502,11.4194872 132.623243,11.6273483 133.662564,12.0430769 L132.512821,20.6953846 L128.654359,20.6953846 L128.654359,16.8758974 C127.511105,17.0837617 126.497782,17.7073452 125.614359,18.7466667 C124.730936,19.7859881 124.0359,21.0981117 123.529231,22.6830769 L123.529231,28.6071795 L127.621538,28.6071795 L127.621538,32.7384615 L114.643077,32.7384615 L114.643077,28.6071795 L117.371282,28.6071795 L117.371282,16.1353846 L114.643077,16.1353846 L114.643077,12.0430769 L122.067692,12.0430769 L123.197949,16.7005128 C123.938465,14.9206749 124.883584,13.5955599 126.033333,12.7251282 C127.183083,11.8546965 128.589393,11.4194872 130.252308,11.4194872 Z M155.234872,24.4953846 L138.358974,24.4953846 L138.358974,19.7015385 L155.234872,19.7015385 L155.234872,24.4953846 Z M181.035897,13.2512821 C180.321364,13.5370954 179.480176,13.7449566 178.512308,13.8748718 C177.54444,14.004787 176.397955,14.0697436 175.072821,14.0697436 C176.410947,14.6413704 177.411279,15.3461497 178.073846,16.1841026 C178.736414,17.0220555 179.067692,18.0905918 179.067692,19.3897436 C179.067692,20.7278699 178.707183,21.9230717 177.986154,22.9753846 C177.265125,24.0276976 176.242058,24.8493988 174.916923,25.4405128 C173.591788,26.0316269 172.052316,26.3271795 170.298462,26.3271795 C169.441021,26.3271795 168.642055,26.2492315 167.901538,26.0933333 C167.680683,26.210257 167.511795,26.3758964 167.394872,26.5902564 C167.277948,26.8046165 167.219487,27.0352124 167.219487,27.2820513 C167.219487,27.6717968 167.375383,27.9803407 167.687179,28.2076923 C167.998976,28.4350439 168.603072,28.5487179 169.499487,28.5487179 L172.890256,28.5487179 C174.46223,28.5487179 175.845806,28.8052966 177.041026,29.3184615 C178.236245,29.8316265 179.158629,30.5429014 179.808205,31.4523077 C180.457781,32.3617139 180.782564,33.3880285 180.782564,34.5312821 C180.782564,35.960349 180.366842,37.1847812 179.535385,38.2046154 C178.703927,39.2244495 177.460008,40.0071768 175.80359,40.5528205 C174.147171,41.0984643 172.117277,41.3712821 169.713846,41.3712821 C167.141526,41.3712821 165.124623,41.1082078 163.663077,40.5820513 C162.201531,40.0558948 161.175217,39.3121416 160.584103,38.3507692 C159.992988,37.3893969 159.697436,36.1812039 159.697436,34.7261538 L165.153846,34.7261538 C165.153846,35.3627382 165.280512,35.866152 165.533846,36.2364103 C165.787181,36.6066685 166.251621,36.8794863 166.927179,37.0548718 C167.602738,37.2302564 168.583583,37.3179487 169.869744,37.3179487 C171.688556,37.3179487 172.942219,37.1133354 173.630769,36.7041026 C174.31932,36.2948697 174.66359,35.713508 174.66359,34.96 C174.66359,34.3234156 174.416755,33.8232497 173.923077,33.4594872 C173.429399,33.0957247 172.675903,32.9138462 171.662564,32.9138462 L168.369231,32.9138462 C166.940164,32.9138462 165.744962,32.7287198 164.78359,32.3584615 C163.822217,31.9882033 163.11419,31.4912852 162.659487,30.8676923 C162.204784,30.2440994 161.977436,29.5490637 161.977436,28.7825641 C161.977436,28.0160645 162.182049,27.2885505 162.591282,26.6 C163.000515,25.9114495 163.575381,25.3333357 164.315897,24.865641 C163.003754,24.1770906 162.058635,23.3586372 161.480513,22.4102564 C160.90239,21.4618756 160.613333,20.3056478 160.613333,18.9415385 C160.613333,17.4215309 161.006321,16.0899202 161.792308,14.9466667 C162.578295,13.8034131 163.672813,12.9264988 165.075897,12.3158974 C166.478981,11.7052961 168.076914,11.4 169.869744,11.4 C171.324794,11.425983 172.623926,11.3253003 173.767179,11.0979487 C174.910433,10.8705972 175.917261,10.5653011 176.787692,10.1820513 C177.658124,9.7988015 178.593499,9.31487472 179.593846,8.73025641 L181.035897,13.2512821 Z M170.025641,15.3948718 C169.051277,15.3948718 168.278293,15.7034157 167.706667,16.3205128 C167.13504,16.9376099 166.849231,17.7852938 166.849231,18.8635897 C166.849231,19.9808603 167.13504,20.8512789 167.706667,21.4748718 C168.278293,22.0984647 169.051277,22.4102564 170.025641,22.4102564 C171.051971,22.4102564 171.834698,22.1049603 172.373846,21.494359 C172.912994,20.8837576 173.182564,19.9808607 173.182564,18.785641 C173.182564,17.6423874 172.91949,16.7914558 172.393333,16.2328205 C171.867177,15.6741852 171.077954,15.3948718 170.025641,15.3948718 Z M193.566154,11.3610256 C195.657788,11.3610256 197.460334,11.8124741 198.973846,12.7153846 C200.487358,13.6182951 201.640338,14.8946926 202.432821,16.5446154 C203.225303,18.1945382 203.621538,20.1237496 203.621538,22.3323077 C203.621538,24.6318064 203.222055,26.6097353 202.423077,28.2661538 C201.624099,29.9225724 200.471119,31.1924742 198.964103,32.0758974 C197.457086,32.9593207 195.657788,33.4010256 193.566154,33.4010256 C191.461528,33.4010256 189.655734,32.9658163 188.148718,32.0953846 C186.641702,31.2249529 185.49197,29.9615467 184.699487,28.3051282 C183.907005,26.6487097 183.510769,24.6707807 183.510769,22.3712821 C183.510769,20.1757155 183.910252,18.2497519 184.709231,16.5933333 C185.508209,14.9369148 186.664437,13.6507738 188.177949,12.7348718 C189.691461,11.8189698 191.487511,11.3610256 193.566154,11.3610256 Z M193.566154,15.9015385 C192.305977,15.9015385 191.373849,16.4211914 190.769744,17.4605128 C190.165638,18.4998343 189.86359,20.136741 189.86359,22.3712821 C189.86359,24.6447977 190.16239,26.2979436 190.76,27.3307692 C191.35761,28.3635949 192.292985,28.88 193.566154,28.88 C194.839323,28.88 195.774698,28.3603471 196.372308,27.3210256 C196.969918,26.2817042 197.268718,24.6188149 197.268718,22.3323077 C197.268718,20.1107581 196.96667,18.4835949 196.362564,17.4507692 C195.758459,16.4179436 194.826331,15.9015385 193.566154,15.9015385 Z M213.326154,24.1835897 C213.521027,25.8075295 214.053671,27.0027312 214.924103,27.7692308 C215.794534,28.5357303 216.918284,28.9189744 218.295385,28.9189744 C220.04924,28.9189744 221.816059,28.3473561 223.595897,27.2041026 L226.070769,30.5558974 C225.044439,31.4393207 223.832998,32.1343564 222.43641,32.6410256 C221.039822,33.1476948 219.497102,33.4010256 217.808205,33.4010256 C215.495715,33.4010256 213.534025,32.9398337 211.923077,32.0174359 C210.312129,31.0950381 209.09744,29.8056493 208.278974,28.1492308 C207.460509,26.4928122 207.051282,24.5798399 207.051282,22.4102564 C207.051282,20.3446051 207.447517,18.4738545 208.24,16.7979487 C209.032483,15.1220429 210.18871,13.7969279 211.708718,12.8225641 C213.228726,11.8482003 215.041015,11.3610256 217.145641,11.3610256 C219.10736,11.3610256 220.818967,11.7832436 222.280513,12.6276923 C223.742059,13.472141 224.869056,14.6933253 225.661538,16.2912821 C226.454021,17.8892388 226.850256,19.7859719 226.850256,21.9815385 C226.850256,22.8259871 226.811282,23.5599969 226.733333,24.1835897 L213.326154,24.1835897 Z M217.145641,15.4923077 C216.015379,15.4923077 215.11573,15.9015344 214.446667,16.72 C213.777603,17.5384656 213.37812,18.7921283 213.248205,20.4810256 L220.848205,20.4810256 C220.809231,17.155197 219.575055,15.4923077 217.145641,15.4923077 Z M239.672821,28.9969231 C240.725133,28.9969231 241.559826,28.8312837 242.176923,28.5 C242.79402,28.1687163 243.102564,27.6847895 243.102564,27.0482051 C243.102564,26.593502 242.979147,26.2200015 242.732308,25.9276923 C242.485469,25.6353832 242.024277,25.3560697 241.348718,25.0897436 C240.673159,24.8234175 239.620862,24.4953866 238.191795,24.105641 C236.113152,23.5470058 234.524963,22.7805177 233.427179,21.8061538 C232.329396,20.83179 231.780513,19.4806924 231.780513,17.7528205 C231.780513,16.5056348 232.128031,15.4013723 232.823077,14.44 C233.518123,13.4786277 234.54119,12.7251309 235.892308,12.1794872 C237.243426,11.6338434 238.867341,11.3610256 240.764103,11.3610256 C244.050957,11.3610256 246.844091,12.198966 249.14359,13.8748718 L246.688205,17.4994872 C245.79179,16.9538434 244.853167,16.5251298 243.872308,16.2133333 C242.891448,15.9015369 241.913851,15.745641 240.939487,15.745641 C239.93914,15.745641 239.195387,15.8788021 238.708205,16.1451282 C238.221023,16.4114543 237.977436,16.8109375 237.977436,17.3435897 C237.977436,17.7073522 238.104101,18.0126483 238.357436,18.2594872 C238.61077,18.506326 239.071962,18.7596568 239.741026,19.0194872 C240.410089,19.2793175 241.452642,19.6105963 242.868718,20.0133333 C244.362743,20.4290619 245.577431,20.887006 246.512821,21.3871795 C247.44821,21.8873529 248.178972,22.5499104 248.705128,23.3748718 C249.231285,24.1998332 249.494359,25.2618738 249.494359,26.5610256 C249.494359,28.0160757 249.055902,29.2599948 248.178974,30.2928205 C247.302047,31.3256462 246.123084,32.1018777 244.642051,32.6215385 C243.161018,33.1411992 241.517616,33.4010256 239.711795,33.4010256 C237.776059,33.4010256 236.035221,33.12496 234.489231,32.5728205 C232.94324,32.020681 231.61163,31.2574408 230.494359,30.2830769 L233.592821,26.814359 C234.450261,27.4899179 235.392132,28.0225622 236.418462,28.4123077 C237.444791,28.8020532 238.529567,28.9969231 239.672821,28.9969231 Z" id=".peter-goes" fill="#FFD47E"></path>
            <path d="M293.593846,4.28717949 C292.307686,4.28717949 291.359319,4.46581018 290.748718,4.82307692 C290.138117,5.18034367 289.87829,5.82666199 289.969231,6.76205128 L290.573333,12.5107692 C290.612308,12.8615402 290.631795,13.1863233 290.631795,13.4851282 C290.631795,15.2000086 290.102398,16.4893974 289.04359,17.3533333 C287.984781,18.2172693 286.47454,18.798631 284.512821,19.0974359 C286.552489,19.3962408 288.082217,19.9613634 289.102051,20.7928205 C290.121885,21.6242777 290.631795,22.903923 290.631795,24.6317949 C290.631795,24.9565828 290.612308,25.3073485 290.573333,25.6841026 L289.969231,31.4328205 C289.956239,31.5107696 289.949744,31.6211959 289.949744,31.7641026 C289.949744,32.5695767 290.25504,33.1282036 290.865641,33.44 C291.476242,33.7517964 292.385635,33.9076923 293.593846,33.9076923 L293.593846,38.1948718 C291.372297,38.1948718 289.576246,38 288.205641,37.6102564 C286.835036,37.2205109 285.824961,36.5904317 285.175385,35.72 C284.525809,34.8495683 284.201026,33.6933405 284.201026,32.2512821 C284.201026,31.9914517 284.227008,31.5757294 284.278974,31.0041026 L284.86359,25.4307692 C284.876581,25.3138456 284.883077,25.1449584 284.883077,24.9241026 C284.883077,23.7158914 284.412141,22.8584641 283.470256,22.3517949 C282.528371,21.8451257 281.213,21.5917949 279.524103,21.5917949 L279.524103,16.6030769 C281.200008,16.6030769 282.512132,16.3497461 283.460513,15.8430769 C284.408894,15.3364077 284.883077,14.4789804 284.883077,13.2707692 C284.883077,13.0499134 284.876581,12.8810262 284.86359,12.7641026 L284.278974,7.22974359 C284.227008,6.81401502 284.201026,6.37231003 284.201026,5.90461538 C284.201026,4.46255689 284.529057,3.3128248 285.185128,2.45538462 C285.8412,1.59794443 286.851275,0.974360923 288.215385,0.584615385 C289.579494,0.194869846 291.372297,0 293.593846,0 L293.593846,4.28717949 Z" id="{" fill="#98E3FF"></path>
            <path d="M104.236923,75.1764103 C106.926167,75.1764103 109.290588,75.6116196 111.330256,76.4820513 L109.634872,80.4964103 C108.257771,79.9767495 106.77676,79.7169231 105.191795,79.7169231 C103.970592,79.7169231 103.096926,79.9377756 102.570769,80.3794872 C102.044613,80.8211988 101.781538,81.5552085 101.781538,82.5815385 L101.781538,85.3487179 L108.524103,85.3487179 L107.842051,89.6164103 L101.781538,89.6164103 L101.781538,104.738462 L95.6625641,104.738462 L95.6625641,89.6164103 L91.3169231,89.6164103 L91.3169231,85.3487179 L95.6625641,85.3487179 L95.6625641,82.3476923 C95.6625641,80.9705914 95.990595,79.7396635 96.6466667,78.6548718 C97.3027383,77.57008 98.2770876,76.7191484 99.5697436,76.1020513 C100.8624,75.4849542 102.418111,75.1764103 104.236923,75.1764103 Z M130.252308,83.4194872 C131.486502,83.4194872 132.623243,83.6273483 133.662564,84.0430769 L132.512821,92.6953846 L128.654359,92.6953846 L128.654359,88.8758974 C127.511105,89.0837617 126.497782,89.7073452 125.614359,90.7466667 C124.730936,91.7859881 124.0359,93.0981117 123.529231,94.6830769 L123.529231,100.607179 L127.621538,100.607179 L127.621538,104.738462 L114.643077,104.738462 L114.643077,100.607179 L117.371282,100.607179 L117.371282,88.1353846 L114.643077,88.1353846 L114.643077,84.0430769 L122.067692,84.0430769 L123.197949,88.7005128 C123.938465,86.9206749 124.883584,85.5955599 126.033333,84.7251282 C127.183083,83.8546965 128.589393,83.4194872 130.252308,83.4194872 Z M146.796923,83.3610256 C148.888557,83.3610256 150.691104,83.8124741 152.204615,84.7153846 C153.718127,85.6182951 154.871107,86.8946926 155.66359,88.5446154 C156.456072,90.1945382 156.852308,92.1237496 156.852308,94.3323077 C156.852308,96.6318064 156.452825,98.6097353 155.653846,100.266154 C154.854868,101.922572 153.701888,103.192474 152.194872,104.075897 C150.687856,104.959321 148.888557,105.401026 146.796923,105.401026 C144.692297,105.401026 142.886503,104.965816 141.379487,104.095385 C139.872471,103.224953 138.722739,101.961547 137.930256,100.305128 C137.137774,98.6487097 136.741538,96.6707807 136.741538,94.3712821 C136.741538,92.1757155 137.141022,90.2497519 137.94,88.5933333 C138.738978,86.9369148 139.895206,85.6507738 141.408718,84.7348718 C142.92223,83.8189698 144.71828,83.3610256 146.796923,83.3610256 Z M146.796923,87.9015385 C145.536746,87.9015385 144.604618,88.4211914 144.000513,89.4605128 C143.396407,90.4998343 143.094359,92.136741 143.094359,94.3712821 C143.094359,96.6447977 143.393159,98.2979436 143.990769,99.3307692 C144.588379,100.363595 145.523754,100.88 146.796923,100.88 C148.070092,100.88 149.005467,100.360347 149.603077,99.3210256 C150.200687,98.2817042 150.499487,96.6188149 150.499487,94.3323077 C150.499487,92.1107581 150.197439,90.4835949 149.593333,89.4507692 C148.989228,88.4179436 148.0571,87.9015385 146.796923,87.9015385 Z M161.217436,104.738462 L161.217436,84.0430769 L166.595897,84.0430769 L167.024615,86.44 C167.960005,85.387687 168.94085,84.6114555 169.967179,84.1112821 C170.993509,83.6111086 172.156233,83.3610256 173.455385,83.3610256 C175.235223,83.3610256 176.628542,83.9034134 177.635385,84.9882051 C178.642227,86.0729969 179.145641,87.5897338 179.145641,89.5384615 L179.145641,104.738462 L172.987692,104.738462 L172.987692,91.3117949 C172.987692,90.4543547 172.925984,89.7788059 172.802564,89.2851282 C172.679145,88.7914505 172.474531,88.437437 172.188718,88.2230769 C171.902905,88.0087169 171.506669,87.9015385 171,87.9015385 C170.376407,87.9015385 169.769063,88.0996561 169.177949,88.4958974 C168.586835,88.8921387 167.985986,89.4799961 167.375385,90.2594872 L167.375385,104.738462 L161.217436,104.738462 Z M203.231795,103.530256 C202.361363,104.101883 201.351288,104.55658 200.201538,104.894359 C199.051789,105.232138 197.801374,105.401026 196.450256,105.401026 C193.799987,105.401026 191.805819,104.725477 190.467692,103.374359 C189.129566,102.023241 188.460513,100.126508 188.460513,97.6841026 L188.460513,88.2912821 L184.114872,88.2912821 L184.114872,84.0430769 L188.460513,84.0430769 L188.460513,79.5610256 L194.618462,78.8205128 L194.618462,84.0430769 L201.283077,84.0430769 L200.678974,88.2912821 L194.618462,88.2912821 L194.618462,97.6841026 C194.618462,98.7104325 194.849058,99.4444422 195.310256,99.8861538 C195.771455,100.327865 196.521704,100.548718 197.561026,100.548718 C198.860177,100.548718 200.06837,100.236926 201.185641,99.6133333 L203.231795,103.530256 Z M225.388718,96.4953846 L208.512821,96.4953846 L208.512821,91.7015385 L225.388718,91.7015385 L225.388718,96.4953846 Z M236.710769,96.1835897 C236.905642,97.8075295 237.438286,99.0027312 238.308718,99.7692308 C239.17915,100.53573 240.302899,100.918974 241.68,100.918974 C243.433855,100.918974 245.200675,100.347356 246.980513,99.2041026 L249.455385,102.555897 C248.429055,103.439321 247.217614,104.134356 245.821026,104.641026 C244.424437,105.147695 242.881718,105.401026 241.192821,105.401026 C238.88033,105.401026 236.918641,104.939834 235.307692,104.017436 C233.696744,103.095038 232.482055,101.805649 231.66359,100.149231 C230.845124,98.4928122 230.435897,96.5798399 230.435897,94.4102564 C230.435897,92.3446051 230.832133,90.4738545 231.624615,88.7979487 C232.417098,87.1220429 233.573326,85.7969279 235.093333,84.8225641 C236.613341,83.8482003 238.425631,83.3610256 240.530256,83.3610256 C242.491976,83.3610256 244.203582,83.7832436 245.665128,84.6276923 C247.126674,85.472141 248.253671,86.6933253 249.046154,88.2912821 C249.838636,89.8892388 250.234872,91.7859719 250.234872,93.9815385 C250.234872,94.8259871 250.195898,95.5599969 250.117949,96.1835897 L236.710769,96.1835897 Z M240.530256,87.4923077 C239.399994,87.4923077 238.500345,87.9015344 237.831282,88.72 C237.162219,89.5384656 236.762736,90.7921283 236.632821,92.4810256 L244.232821,92.4810256 C244.193846,89.155197 242.95967,87.4923077 240.530256,87.4923077 Z M254.755897,104.738462 L254.755897,84.0430769 L260.134359,84.0430769 L260.563077,86.44 C261.498466,85.387687 262.479311,84.6114555 263.505641,84.1112821 C264.531971,83.6111086 265.694694,83.3610256 266.993846,83.3610256 C268.773684,83.3610256 270.167004,83.9034134 271.173846,84.9882051 C272.180689,86.0729969 272.684103,87.5897338 272.684103,89.5384615 L272.684103,104.738462 L266.526154,104.738462 L266.526154,91.3117949 C266.526154,90.4543547 266.464445,89.7788059 266.341026,89.2851282 C266.217606,88.7914505 266.012993,88.437437 265.727179,88.2230769 C265.441366,88.0087169 265.045131,87.9015385 264.538462,87.9015385 C263.914869,87.9015385 263.307524,88.0996561 262.71641,88.4958974 C262.125296,88.8921387 261.524447,89.4799961 260.913846,90.2594872 L260.913846,104.738462 L254.755897,104.738462 Z M289.910769,75.1764103 L296.068718,75.8194872 L296.068718,104.738462 L290.612308,104.738462 L290.300513,102.458462 C289.67692,103.341885 288.884449,104.05316 287.923077,104.592308 C286.961705,105.131456 285.844451,105.401026 284.571282,105.401026 C282.895376,105.401026 281.489066,104.949577 280.352308,104.046667 C279.21555,103.143756 278.367866,101.864111 277.809231,100.207692 C277.250595,98.5512738 276.971282,96.5928318 276.971282,94.3323077 C276.971282,92.2146903 277.305809,90.3244528 277.974872,88.6615385 C278.643935,86.9986242 279.598797,85.6994919 280.839487,84.7641026 C282.080177,83.8287133 283.538453,83.3610256 285.214359,83.3610256 C287.072146,83.3610256 288.6376,83.9976005 289.910769,85.2707692 L289.910769,75.1764103 Z M286.870769,87.8625641 C285.753499,87.8625641 284.88308,88.3854649 284.259487,89.4312821 C283.635894,90.4770992 283.324103,92.1237494 283.324103,94.3712821 C283.324103,96.7747129 283.600168,98.460337 284.152308,99.4282051 C284.704447,100.396073 285.49367,100.88 286.52,100.88 C287.819152,100.88 288.949397,100.081034 289.910769,98.4830769 L289.910769,89.5579487 C289.456066,88.9993134 288.988378,88.5770954 288.507692,88.2912821 C288.027006,88.0054687 287.481371,87.8625641 286.870769,87.8625641 Z" id="front-end" fill="#8FD2CE"></path>
            <path d="M306.377436,87.8235897 C306.377436,87.0960647 306.562562,86.4205159 306.932821,85.7969231 C307.303079,85.1733302 307.803245,84.6731643 308.433333,84.2964103 C309.063422,83.9196562 309.748714,83.7312821 310.489231,83.7312821 C311.229747,83.7312821 311.911792,83.9196562 312.535385,84.2964103 C313.158977,84.6731643 313.652648,85.1733302 314.01641,85.7969231 C314.380173,86.4205159 314.562051,87.0960647 314.562051,87.8235897 C314.562051,88.5511147 314.380173,89.2266635 314.01641,89.8502564 C313.652648,90.4738493 313.158977,90.9707674 312.535385,91.3410256 C311.911792,91.7112839 311.229747,91.8964103 310.489231,91.8964103 C309.748714,91.8964103 309.063422,91.7112839 308.433333,91.3410256 C307.803245,90.9707674 307.303079,90.4738493 306.932821,89.8502564 C306.562562,89.2266635 306.377436,88.5511147 306.377436,87.8235897 Z M306.377436,101.289231 C306.377436,100.561706 306.562562,99.8894048 306.932821,99.2723077 C307.303079,98.6552106 307.803245,98.1647881 308.433333,97.8010256 C309.063422,97.4372631 309.748714,97.2553846 310.489231,97.2553846 C311.229747,97.2553846 311.911792,97.4372631 312.535385,97.8010256 C313.158977,98.1647881 313.652648,98.6552106 314.01641,99.2723077 C314.380173,99.8894048 314.562051,100.561706 314.562051,101.289231 C314.562051,102.029747 314.380173,102.71504 314.01641,103.345128 C313.652648,103.975217 313.158977,104.475383 312.535385,104.845641 C311.911792,105.215899 311.229747,105.401026 310.489231,105.401026 C309.748714,105.401026 309.063422,105.215899 308.433333,104.845641 C307.803245,104.475383 307.303079,103.975217 306.932821,103.345128 C306.562562,102.71504 306.377436,102.029747 306.377436,101.289231 Z" id=":" fill="#98E3FF"></path>
            <path d="M360.064615,75.1764103 L366.222564,75.8194872 L366.222564,104.738462 L360.766154,104.738462 L360.454359,102.458462 C359.830766,103.341885 359.038295,104.05316 358.076923,104.592308 C357.115551,105.131456 355.998297,105.401026 354.725128,105.401026 C353.049222,105.401026 351.642912,104.949577 350.506154,104.046667 C349.369396,103.143756 348.521712,101.864111 347.963077,100.207692 C347.404442,98.5512738 347.125128,96.5928318 347.125128,94.3323077 C347.125128,92.2146903 347.459655,90.3244528 348.128718,88.6615385 C348.797781,86.9986242 349.752643,85.6994919 350.993333,84.7641026 C352.234023,83.8287133 353.692299,83.3610256 355.368205,83.3610256 C357.225992,83.3610256 358.791447,83.9976005 360.064615,85.2707692 L360.064615,75.1764103 Z M357.024615,87.8625641 C355.907345,87.8625641 355.036926,88.3854649 354.413333,89.4312821 C353.78974,90.4770992 353.477949,92.1237494 353.477949,94.3712821 C353.477949,96.7747129 353.754014,98.460337 354.306154,99.4282051 C354.858293,100.396073 355.647516,100.88 356.673846,100.88 C357.972998,100.88 359.103243,100.081034 360.064615,98.4830769 L360.064615,89.5579487 C359.609912,88.9993134 359.142225,88.5770954 358.661538,88.2912821 C358.180852,88.0054687 357.635217,87.8625641 357.024615,87.8625641 Z M377.018462,96.1835897 C377.213334,97.8075295 377.745979,99.0027312 378.61641,99.7692308 C379.486842,100.53573 380.610591,100.918974 381.987692,100.918974 C383.741547,100.918974 385.508367,100.347356 387.288205,99.2041026 L389.763077,102.555897 C388.736747,103.439321 387.525306,104.134356 386.128718,104.641026 C384.73213,105.147695 383.18941,105.401026 381.500513,105.401026 C379.188023,105.401026 377.226333,104.939834 375.615385,104.017436 C374.004436,103.095038 372.789748,101.805649 371.971282,100.149231 C371.152816,98.4928122 370.74359,96.5798399 370.74359,94.4102564 C370.74359,92.3446051 371.139825,90.4738545 371.932308,88.7979487 C372.72479,87.1220429 373.881018,85.7969279 375.401026,84.8225641 C376.921033,83.8482003 378.733323,83.3610256 380.837949,83.3610256 C382.799668,83.3610256 384.511275,83.7832436 385.972821,84.6276923 C387.434366,85.472141 388.561364,86.6933253 389.353846,88.2912821 C390.146329,89.8892388 390.542564,91.7859719 390.542564,93.9815385 C390.542564,94.8259871 390.50359,95.5599969 390.425641,96.1835897 L377.018462,96.1835897 Z M380.837949,87.4923077 C379.707687,87.4923077 378.808038,87.9015344 378.138974,88.72 C377.469911,89.5384656 377.070428,90.7921283 376.940513,92.4810256 L384.540513,92.4810256 C384.501538,89.155197 383.267363,87.4923077 380.837949,87.4923077 Z M408.353846,84.0430769 L414.589744,84.0430769 L407.691282,104.738462 L400.442051,104.738462 L393.465641,84.0430769 L400.110769,84.0430769 L404.144615,100.022564 L408.353846,84.0430769 Z M423.787692,96.1835897 C423.982565,97.8075295 424.515209,99.0027312 425.385641,99.7692308 C426.256073,100.53573 427.379822,100.918974 428.756923,100.918974 C430.510778,100.918974 432.277598,100.347356 434.057436,99.2041026 L436.532308,102.555897 C435.505978,103.439321 434.294537,104.134356 432.897949,104.641026 C431.501361,105.147695 429.958641,105.401026 428.269744,105.401026 C425.957253,105.401026 423.995564,104.939834 422.384615,104.017436 C420.773667,103.095038 419.558978,101.805649 418.740513,100.149231 C417.922047,98.4928122 417.512821,96.5798399 417.512821,94.4102564 C417.512821,92.3446051 417.909056,90.4738545 418.701538,88.7979487 C419.494021,87.1220429 420.650249,85.7969279 422.170256,84.8225641 C423.690264,83.8482003 425.502554,83.3610256 427.607179,83.3610256 C429.568899,83.3610256 431.280506,83.7832436 432.742051,84.6276923 C434.203597,85.472141 435.330594,86.6933253 436.123077,88.2912821 C436.91556,89.8892388 437.311795,91.7859719 437.311795,93.9815385 C437.311795,94.8259871 437.272821,95.5599969 437.194872,96.1835897 L423.787692,96.1835897 Z M427.607179,87.4923077 C426.476917,87.4923077 425.577268,87.9015344 424.908205,88.72 C424.239142,89.5384656 423.839659,90.7921283 423.709744,92.4810256 L431.309744,92.4810256 C431.270769,89.155197 430.036593,87.4923077 427.607179,87.4923077 Z M452.628718,98.2297436 C452.628718,99.0352177 452.859314,99.6230751 453.320513,99.9933333 C453.781712,100.363592 454.441021,100.548718 455.298462,100.548718 C456.233851,100.548718 457.2082,100.340857 458.221538,99.9251282 L459.702564,104.036923 C457.974692,104.946329 455.980524,105.401026 453.72,105.401026 C451.290586,105.401026 449.475049,104.702742 448.273333,103.306154 C447.071618,101.909566 446.470769,99.964115 446.470769,97.4697436 L446.470769,80.0287179 L440.371282,80.0287179 L440.371282,75.8194872 L452.628718,75.8194872 L452.628718,98.2297436 Z M474.181538,83.3610256 C476.273173,83.3610256 478.075719,83.8124741 479.589231,84.7153846 C481.102743,85.6182951 482.255723,86.8946926 483.048205,88.5446154 C483.840688,90.1945382 484.236923,92.1237496 484.236923,94.3323077 C484.236923,96.6318064 483.83744,98.6097353 483.038462,100.266154 C482.239483,101.922572 481.086503,103.192474 479.579487,104.075897 C478.072471,104.959321 476.273173,105.401026 474.181538,105.401026 C472.076913,105.401026 470.271119,104.965816 468.764103,104.095385 C467.257086,103.224953 466.107354,101.961547 465.314872,100.305128 C464.522389,98.6487097 464.126154,96.6707807 464.126154,94.3712821 C464.126154,92.1757155 464.525637,90.2497519 465.324615,88.5933333 C466.123594,86.9369148 467.279821,85.6507738 468.793333,84.7348718 C470.306845,83.8189698 472.102896,83.3610256 474.181538,83.3610256 Z M474.181538,87.9015385 C472.921361,87.9015385 471.989234,88.4211914 471.385128,89.4605128 C470.781023,90.4998343 470.478974,92.136741 470.478974,94.3712821 C470.478974,96.6447977 470.777775,98.2979436 471.375385,99.3307692 C471.972994,100.363595 472.90837,100.88 474.181538,100.88 C475.454707,100.88 476.390082,100.360347 476.987692,99.3210256 C477.585302,98.2817042 477.884103,96.6188149 477.884103,94.3323077 C477.884103,92.1107581 477.582054,90.4835949 476.977949,89.4507692 C476.373843,88.4179436 475.441716,87.9015385 474.181538,87.9015385 Z M500.060513,83.3610256 C502.671808,83.3610256 504.58478,84.3126401 505.799487,86.2158974 C507.014194,88.1191548 507.621538,90.8245978 507.621538,94.3323077 C507.621538,96.4759082 507.306499,98.3823848 506.67641,100.051795 C506.046322,101.721205 505.133681,103.030081 503.938462,103.978462 C502.743242,104.926842 501.320692,105.401026 499.670769,105.401026 C497.657084,105.401026 496.020177,104.680007 494.76,103.237949 L494.76,112.728205 L488.602051,113.371282 L488.602051,84.0430769 L494.058462,84.0430769 L494.331282,86.3620513 C495.136756,85.3357214 496.033157,84.5789768 497.020513,84.0917949 C498.007868,83.6046129 499.021191,83.3610256 500.060513,83.3610256 Z M498.150769,87.9015385 C497.462219,87.9015385 496.841883,88.1061518 496.289744,88.5153846 C495.737604,88.9246174 495.227695,89.5189705 494.76,90.2984615 L494.76,99.0287179 C495.201712,99.6782938 495.659656,100.149229 496.133846,100.441538 C496.608037,100.733848 497.163416,100.88 497.8,100.88 C498.930262,100.88 499.790937,100.366843 500.382051,99.3405128 C500.973165,98.3141829 501.268718,96.6707805 501.268718,94.4102564 C501.268718,92.7473421 501.148548,91.4384663 500.908205,90.4835897 C500.667862,89.5287132 500.320344,88.85966 499.865641,88.4764103 C499.410938,88.0931605 498.83932,87.9015385 498.150769,87.9015385 Z M517.326154,96.1835897 C517.521027,97.8075295 518.053671,99.0027312 518.924103,99.7692308 C519.794534,100.53573 520.918284,100.918974 522.295385,100.918974 C524.04924,100.918974 525.816059,100.347356 527.595897,99.2041026 L530.070769,102.555897 C529.044439,103.439321 527.832998,104.134356 526.43641,104.641026 C525.039822,105.147695 523.497102,105.401026 521.808205,105.401026 C519.495715,105.401026 517.534025,104.939834 515.923077,104.017436 C514.312129,103.095038 513.09744,101.805649 512.278974,100.149231 C511.460509,98.4928122 511.051282,96.5798399 511.051282,94.4102564 C511.051282,92.3446051 511.447517,90.4738545 512.24,88.7979487 C513.032483,87.1220429 514.18871,85.7969279 515.708718,84.8225641 C517.228726,83.8482003 519.041015,83.3610256 521.145641,83.3610256 C523.10736,83.3610256 524.818967,83.7832436 526.280513,84.6276923 C527.742059,85.472141 528.869056,86.6933253 529.661538,88.2912821 C530.454021,89.8892388 530.850256,91.7859719 530.850256,93.9815385 C530.850256,94.8259871 530.811282,95.5599969 530.733333,96.1835897 L517.326154,96.1835897 Z M521.145641,87.4923077 C520.015379,87.4923077 519.11573,87.9015344 518.446667,88.72 C517.777603,89.5384656 517.37812,90.7921283 517.248205,92.4810256 L524.848205,92.4810256 C524.809231,89.155197 523.575055,87.4923077 521.145641,87.4923077 Z M551.175385,83.4194872 C552.409579,83.4194872 553.54632,83.6273483 554.585641,84.0430769 L553.435897,92.6953846 L549.577436,92.6953846 L549.577436,88.8758974 C548.434182,89.0837617 547.420859,89.7073452 546.537436,90.7466667 C545.654013,91.7859881 544.958977,93.0981117 544.452308,94.6830769 L544.452308,100.607179 L548.544615,100.607179 L548.544615,104.738462 L535.566154,104.738462 L535.566154,100.607179 L538.294359,100.607179 L538.294359,88.1353846 L535.566154,88.1353846 L535.566154,84.0430769 L542.990769,84.0430769 L544.121026,88.7005128 C544.861542,86.9206749 545.806661,85.5955599 546.95641,84.7251282 C548.10616,83.8546965 549.51247,83.4194872 551.175385,83.4194872 Z" id="developer" fill="#BED5DD"></path>
            <path d="M567.72,83.7312821 C568.460517,83.7312821 569.142561,83.9196562 569.766154,84.2964103 C570.389747,84.6731643 570.883417,85.1733302 571.247179,85.7969231 C571.610942,86.4205159 571.792821,87.0960647 571.792821,87.8235897 C571.792821,88.5511147 571.610942,89.2266635 571.247179,89.8502564 C570.883417,90.4738493 570.389747,90.9707674 569.766154,91.3410256 C569.142561,91.7112839 568.460517,91.8964103 567.72,91.8964103 C566.979483,91.8964103 566.294191,91.7112839 565.664103,91.3410256 C565.034014,90.9707674 564.533848,90.4738493 564.16359,89.8502564 C563.793331,89.2266635 563.608205,88.5511147 563.608205,87.8235897 C563.608205,87.0960647 563.793331,86.4205159 564.16359,85.7969231 C564.533848,85.1733302 565.034014,84.6731643 565.664103,84.2964103 C566.294191,83.9196562 566.979483,83.7312821 567.72,83.7312821 Z M567.72,97.0605128 C568.4865,97.0605128 569.178288,97.2358957 569.795385,97.5866667 C570.412482,97.9374377 570.899656,98.4213644 571.256923,99.0384615 C571.61419,99.6555586 571.792821,100.347347 571.792821,101.113846 C571.792821,101.776414 571.675899,102.448715 571.442051,103.130769 C571.208204,103.812824 570.785986,104.868369 570.175385,106.297436 L567.466667,112.435897 L563.491282,112.435897 L565.401026,104.446154 C564.829399,104.082391 564.387694,103.608208 564.075897,103.02359 C563.764101,102.438971 563.608205,101.789405 563.608205,101.074872 C563.608205,100.321364 563.790084,99.6393193 564.153846,99.0287179 C564.517609,98.4181166 565.011279,97.9374377 565.634872,97.5866667 C566.258465,97.2358957 566.9535,97.0605128 567.72,97.0605128 Z M0,144 C2.22154957,144 4.01759998,144.19487 5.38820513,144.584615 C6.75881027,144.974361 7.76888564,145.60444 8.41846154,146.474872 C9.06803744,147.345303 9.39282051,148.501531 9.39282051,149.94359 C9.39282051,150.20342 9.36683787,150.619142 9.31487179,151.190769 L8.73025641,156.764103 C8.71726489,156.881026 8.71076923,157.049913 8.71076923,157.270769 C8.71076923,158.47898 9.18170469,159.336408 10.1235897,159.843077 C11.0654748,160.349746 12.3808463,160.603077 14.0697436,160.603077 L14.0697436,165.591795 C12.3938378,165.591795 11.0817141,165.845126 10.1333333,166.351795 C9.18495252,166.858464 8.71076923,167.715891 8.71076923,168.924103 C8.71076923,169.144958 8.71726489,169.313846 8.73025641,169.430769 L9.31487179,174.965128 C9.36683787,175.380857 9.39282051,175.822562 9.39282051,176.290256 C9.39282051,177.732315 9.06478961,178.882047 8.40871795,179.739487 C7.75264629,180.596927 6.74257092,181.220511 5.37846154,181.610256 C4.01435215,182 2.22154957,182.194872 0,182.194872 L0,177.907692 C1.28616028,177.907692 2.23452686,177.729062 2.84512821,177.371795 C3.45572955,177.014528 3.71555601,176.36821 3.62461538,175.432821 L3.02051282,169.684103 C2.98153827,169.333332 2.96205128,169.008549 2.96205128,168.709744 C2.96205128,166.981872 3.4914477,165.689235 4.55025641,164.831795 C5.60906512,163.974355 7.12580209,163.396241 9.10051282,163.097436 C7.04785298,162.798631 5.51162903,162.230261 4.49179487,161.392308 C3.47196071,160.554355 2.96205128,159.277957 2.96205128,157.563077 C2.96205128,157.225297 2.98153827,156.874532 3.02051282,156.510769 L3.62461538,150.762051 C3.6376069,150.684102 3.64410256,150.573676 3.64410256,150.430769 C3.64410256,149.625295 3.33880647,149.066668 2.72820513,148.754872 C2.11760378,148.443075 1.20821117,148.287179 0,148.287179 L0,144 Z" id=";}" fill="#98E3FF"></path>
        </g>
        <rect id="Rectangle" fill-opacity="0.5" fill="#263238" x="135" y="163" width="23" height="22"></rect>
        <rect id="Rectangle" fill-opacity="0.5" fill="#263238" x="415" y="138" width="23" height="51"></rect>
        <rect id="Rectangle" fill-opacity="0.5" fill="#263238" x="441" y="214" width="23" height="51"></rect>
        <rect id="Rectangle" fill-opacity="0.5" fill="#263238" x="697" y="214" width="23" height="51"></rect>
        <rect id="Rectangle" fill-opacity="0.5" fill="#263238" x="135" y="283" width="23" height="51"></rect>
    </g>
</svg>
